<svg xmlns="http://www.w3.org/2000/svg" width="20" height="21" viewBox="0 0 20 21" fill="none">
  <rect width="20" height="20" transform="matrix(0 -1 1 0 0 20.5)" fill="white" fill-opacity="0.01"/>
  <path fill-rule="evenodd" clip-rule="evenodd" d="M9.16246 12.9962L5.33496 9.16875C5.25708 9.09242 5.19511 9.00142 5.15262 8.901C5.11013 8.80058 5.08796 8.69273 5.08741 8.58369C5.08686 8.47465 5.10793 8.36658 5.14941 8.26573C5.19088 8.16489 5.25194 8.07326 5.32904 7.99616C5.40614 7.91905 5.49777 7.858 5.59861 7.81652C5.69946 7.77505 5.80753 7.75398 5.91657 7.75453C6.02561 7.75508 6.13346 7.77724 6.23388 7.81973C6.3343 7.86222 6.42531 7.9242 6.50163 8.00208L9.75163 11.2521L13.0016 8.00208C13.1569 7.84994 13.3659 7.76522 13.5832 7.76631C13.8006 7.76741 14.0087 7.85424 14.1624 8.00794C14.3161 8.16164 14.403 8.36978 14.4041 8.58714C14.4052 8.8045 14.3204 9.0135 14.1683 9.16875L10.3416 12.9962C10.1854 13.1525 9.97343 13.2402 9.75246 13.2402C9.53149 13.2402 9.31957 13.1525 9.16329 12.9962H9.16246Z" fill="black"/>
</svg>