<svg xmlns="http://www.w3.org/2000/svg" width="32" height="32" viewBox="0 0 32 32" fill="none">
  <path d="M24.9464 9.61315C24.8225 9.48818 24.675 9.38898 24.5125 9.32129C24.3501 9.2536 24.1758 9.21875 23.9998 9.21875C23.8238 9.21875 23.6495 9.2536 23.487 9.32129C23.3245 9.38898 23.1771 9.48818 23.0531 9.61315L13.1198 19.5598L8.94644 15.3731C8.81774 15.2488 8.66582 15.1511 8.49935 15.0855C8.33287 15.0199 8.15511 14.9877 7.9762 14.9908C7.79729 14.9939 7.62075 15.0322 7.45664 15.1035C7.29254 15.1748 7.14409 15.2778 7.01977 15.4065C6.89545 15.5352 6.7977 15.6871 6.73209 15.8536C6.66649 16.02 6.63432 16.1978 6.63741 16.3767C6.64051 16.5556 6.67881 16.7322 6.75013 16.8963C6.82146 17.0604 6.92441 17.2088 7.0531 17.3331L12.1731 22.4531C12.2971 22.5781 12.4445 22.6773 12.607 22.745C12.7695 22.8127 12.9438 22.8475 13.1198 22.8475C13.2958 22.8475 13.4701 22.8127 13.6325 22.745C13.795 22.6773 13.9425 22.5781 14.0664 22.4531L24.9464 11.5731C25.0818 11.4483 25.1898 11.2968 25.2637 11.1281C25.3375 10.9594 25.3757 10.7773 25.3757 10.5931C25.3757 10.409 25.3375 10.2269 25.2637 10.0582C25.1898 9.88954 25.0818 9.738 24.9464 9.61315Z" fill="#5982E7"/>
</svg>